<mxfile host="app.diagrams.net" agent="Mozilla/5.0 (Windows NT 10.0; Win64; x64) AppleWebKit/537.36 (KHTML, like Gecko) Chrome/134.0.0.0 Safari/537.36" version="26.2.5">
  <diagram name="PÃ¡gina-1" id="g_h2XA78Yj2dbJA6HJTw">
    <mxGraphModel dx="656" dy="356" grid="1" gridSize="10" guides="1" tooltips="1" connect="1" arrows="1" fold="1" page="1" pageScale="1" pageWidth="827" pageHeight="1169" math="0" shadow="0">
      <root>
        <mxCell id="0" />
        <mxCell id="1" parent="0" />
        <mxCell id="25ei15dYUHbiPBNoR425-1" value="Inicio" style="ellipse;whiteSpace=wrap;html=1;" parent="1" vertex="1">
          <mxGeometry x="35" y="20" width="80" height="40" as="geometry" />
        </mxCell>
        <mxCell id="25ei15dYUHbiPBNoR425-2" value="" style="endArrow=classic;html=1;rounded=0;" parent="1" edge="1">
          <mxGeometry width="50" height="50" relative="1" as="geometry">
            <mxPoint x="74.79999999999995" y="60" as="sourcePoint" />
            <mxPoint x="75" y="80" as="targetPoint" />
            <Array as="points">
              <mxPoint x="74.79999999999995" y="80" />
            </Array>
          </mxGeometry>
        </mxCell>
        <mxCell id="25ei15dYUHbiPBNoR425-4" value="&lt;div&gt;&lt;br&gt;&lt;/div&gt;&lt;div&gt;&lt;span style=&quot;background-color: transparent; color: light-dark(rgb(0, 0, 0), rgb(255, 255, 255));&quot;&gt;base&lt;/span&gt;&lt;/div&gt;" style="shape=manualInput;whiteSpace=wrap;html=1;" parent="1" vertex="1">
          <mxGeometry x="45" y="130" width="60" height="60" as="geometry" />
        </mxCell>
        <mxCell id="25ei15dYUHbiPBNoR425-5" value="&amp;nbsp; Escreva base:" style="shape=display;whiteSpace=wrap;html=1;" parent="1" vertex="1">
          <mxGeometry x="25" y="80" width="100" height="40" as="geometry" />
        </mxCell>
        <mxCell id="25ei15dYUHbiPBNoR425-6" value="" style="endArrow=classic;html=1;rounded=0;" parent="1" edge="1">
          <mxGeometry width="50" height="50" relative="1" as="geometry">
            <mxPoint x="74.94000000000005" y="120" as="sourcePoint" />
            <mxPoint x="74.80000000000001" y="140" as="targetPoint" />
            <Array as="points">
              <mxPoint x="74.80000000000001" y="130" />
              <mxPoint x="74.80000000000001" y="140" />
            </Array>
          </mxGeometry>
        </mxCell>
        <mxCell id="25ei15dYUHbiPBNoR425-7" value="&lt;div&gt;&lt;br&gt;&lt;/div&gt;altura" style="shape=manualInput;whiteSpace=wrap;html=1;" parent="1" vertex="1">
          <mxGeometry x="45" y="260" width="60" height="60" as="geometry" />
        </mxCell>
        <mxCell id="25ei15dYUHbiPBNoR425-8" value="&amp;nbsp; Escreva altura:" style="shape=display;whiteSpace=wrap;html=1;" parent="1" vertex="1">
          <mxGeometry x="25" y="210" width="100" height="40" as="geometry" />
        </mxCell>
        <mxCell id="25ei15dYUHbiPBNoR425-9" value="" style="endArrow=classic;html=1;rounded=0;" parent="1" edge="1">
          <mxGeometry width="50" height="50" relative="1" as="geometry">
            <mxPoint x="74.97000000000003" y="250" as="sourcePoint" />
            <mxPoint x="74.82999999999998" y="270" as="targetPoint" />
            <Array as="points">
              <mxPoint x="74.82999999999998" y="260" />
              <mxPoint x="74.82999999999998" y="270" />
            </Array>
          </mxGeometry>
        </mxCell>
        <mxCell id="25ei15dYUHbiPBNoR425-10" value="" style="endArrow=classic;html=1;rounded=0;" parent="1" edge="1">
          <mxGeometry width="50" height="50" relative="1" as="geometry">
            <mxPoint x="74.97000000000003" y="190" as="sourcePoint" />
            <mxPoint x="74.82999999999998" y="210" as="targetPoint" />
            <Array as="points">
              <mxPoint x="74.82999999999998" y="200" />
              <mxPoint x="74.82999999999998" y="210" />
            </Array>
          </mxGeometry>
        </mxCell>
        <mxCell id="25ei15dYUHbiPBNoR425-11" value="&lt;font style=&quot;font-size: 9px;&quot;&gt;area = base * altura&lt;/font&gt;" style="rounded=0;whiteSpace=wrap;html=1;" parent="1" vertex="1">
          <mxGeometry x="30" y="340" width="90" height="40" as="geometry" />
        </mxCell>
        <mxCell id="25ei15dYUHbiPBNoR425-12" value="" style="endArrow=classic;html=1;rounded=0;" parent="1" edge="1">
          <mxGeometry width="50" height="50" relative="1" as="geometry">
            <mxPoint x="74.94000000000005" y="320" as="sourcePoint" />
            <mxPoint x="74.79999999999995" y="340" as="targetPoint" />
            <Array as="points">
              <mxPoint x="74.79999999999995" y="330" />
              <mxPoint x="74.79999999999995" y="340" />
            </Array>
          </mxGeometry>
        </mxCell>
        <mxCell id="25ei15dYUHbiPBNoR425-14" value="" style="endArrow=classic;html=1;rounded=0;" parent="1" edge="1">
          <mxGeometry width="50" height="50" relative="1" as="geometry">
            <mxPoint x="74.94000000000005" y="380" as="sourcePoint" />
            <mxPoint x="74.79999999999995" y="400" as="targetPoint" />
            <Array as="points">
              <mxPoint x="74.79999999999995" y="390" />
              <mxPoint x="74.79999999999995" y="400" />
            </Array>
          </mxGeometry>
        </mxCell>
        <mxCell id="25ei15dYUHbiPBNoR425-15" value="&amp;nbsp;area" style="shape=display;whiteSpace=wrap;html=1;" parent="1" vertex="1">
          <mxGeometry x="20" y="400" width="100" height="40" as="geometry" />
        </mxCell>
        <mxCell id="25ei15dYUHbiPBNoR425-16" value="fim" style="ellipse;whiteSpace=wrap;html=1;" parent="1" vertex="1">
          <mxGeometry x="35" y="460" width="80" height="40" as="geometry" />
        </mxCell>
        <mxCell id="25ei15dYUHbiPBNoR425-17" value="" style="endArrow=classic;html=1;rounded=0;" parent="1" edge="1">
          <mxGeometry width="50" height="50" relative="1" as="geometry">
            <mxPoint x="74.94000000000005" y="440" as="sourcePoint" />
            <mxPoint x="74.79999999999995" y="460" as="targetPoint" />
            <Array as="points">
              <mxPoint x="74.79999999999995" y="450" />
              <mxPoint x="74.79999999999995" y="460" />
            </Array>
          </mxGeometry>
        </mxCell>
        <mxCell id="25ei15dYUHbiPBNoR425-19" value="Inicio" style="ellipse;whiteSpace=wrap;html=1;" parent="1" vertex="1">
          <mxGeometry x="165" y="20" width="80" height="40" as="geometry" />
        </mxCell>
        <mxCell id="25ei15dYUHbiPBNoR425-20" value="" style="endArrow=classic;html=1;rounded=0;" parent="1" edge="1">
          <mxGeometry width="50" height="50" relative="1" as="geometry">
            <mxPoint x="204.79999999999995" y="60" as="sourcePoint" />
            <mxPoint x="205" y="80" as="targetPoint" />
            <Array as="points">
              <mxPoint x="204.79999999999995" y="80" />
            </Array>
          </mxGeometry>
        </mxCell>
        <mxCell id="25ei15dYUHbiPBNoR425-21" value="&lt;div&gt;&lt;br&gt;&lt;/div&gt;&lt;div&gt;n1&lt;/div&gt;" style="shape=manualInput;whiteSpace=wrap;html=1;" parent="1" vertex="1">
          <mxGeometry x="175" y="130" width="60" height="60" as="geometry" />
        </mxCell>
        <mxCell id="25ei15dYUHbiPBNoR425-22" value="&amp;nbsp; Escreva n1:" style="shape=display;whiteSpace=wrap;html=1;" parent="1" vertex="1">
          <mxGeometry x="155" y="80" width="100" height="40" as="geometry" />
        </mxCell>
        <mxCell id="25ei15dYUHbiPBNoR425-23" value="" style="endArrow=classic;html=1;rounded=0;" parent="1" edge="1">
          <mxGeometry width="50" height="50" relative="1" as="geometry">
            <mxPoint x="204.94000000000005" y="120" as="sourcePoint" />
            <mxPoint x="204.8" y="140" as="targetPoint" />
            <Array as="points">
              <mxPoint x="204.8" y="130" />
              <mxPoint x="204.8" y="140" />
            </Array>
          </mxGeometry>
        </mxCell>
        <mxCell id="25ei15dYUHbiPBNoR425-24" value="&lt;div&gt;&lt;br&gt;&lt;/div&gt;&lt;div&gt;n2&lt;/div&gt;" style="shape=manualInput;whiteSpace=wrap;html=1;" parent="1" vertex="1">
          <mxGeometry x="175" y="260" width="60" height="60" as="geometry" />
        </mxCell>
        <mxCell id="25ei15dYUHbiPBNoR425-25" value="&amp;nbsp; Escreva n2:" style="shape=display;whiteSpace=wrap;html=1;" parent="1" vertex="1">
          <mxGeometry x="155" y="210" width="100" height="40" as="geometry" />
        </mxCell>
        <mxCell id="25ei15dYUHbiPBNoR425-26" value="" style="endArrow=classic;html=1;rounded=0;" parent="1" edge="1">
          <mxGeometry width="50" height="50" relative="1" as="geometry">
            <mxPoint x="204.97000000000003" y="250" as="sourcePoint" />
            <mxPoint x="204.82999999999998" y="270" as="targetPoint" />
            <Array as="points">
              <mxPoint x="204.82999999999998" y="260" />
              <mxPoint x="204.82999999999998" y="270" />
            </Array>
          </mxGeometry>
        </mxCell>
        <mxCell id="25ei15dYUHbiPBNoR425-27" value="" style="endArrow=classic;html=1;rounded=0;" parent="1" edge="1">
          <mxGeometry width="50" height="50" relative="1" as="geometry">
            <mxPoint x="204.97000000000003" y="190" as="sourcePoint" />
            <mxPoint x="204.82999999999998" y="210" as="targetPoint" />
            <Array as="points">
              <mxPoint x="204.82999999999998" y="200" />
              <mxPoint x="204.82999999999998" y="210" />
            </Array>
          </mxGeometry>
        </mxCell>
        <mxCell id="25ei15dYUHbiPBNoR425-28" value="&lt;font style=&quot;font-size: 8px;&quot;&gt;media = (n1+n2+n3)/3&lt;/font&gt;" style="rounded=0;whiteSpace=wrap;html=1;" parent="1" vertex="1">
          <mxGeometry x="160" y="470" width="90" height="40" as="geometry" />
        </mxCell>
        <mxCell id="25ei15dYUHbiPBNoR425-29" value="" style="endArrow=classic;html=1;rounded=0;" parent="1" edge="1">
          <mxGeometry width="50" height="50" relative="1" as="geometry">
            <mxPoint x="204.94000000000005" y="320" as="sourcePoint" />
            <mxPoint x="204.79999999999995" y="340" as="targetPoint" />
            <Array as="points">
              <mxPoint x="204.79999999999995" y="330" />
              <mxPoint x="204.79999999999995" y="340" />
            </Array>
          </mxGeometry>
        </mxCell>
        <mxCell id="25ei15dYUHbiPBNoR425-30" value="" style="endArrow=classic;html=1;rounded=0;" parent="1" edge="1">
          <mxGeometry width="50" height="50" relative="1" as="geometry">
            <mxPoint x="204.94000000000005" y="510" as="sourcePoint" />
            <mxPoint x="204.79999999999995" y="530" as="targetPoint" />
            <Array as="points">
              <mxPoint x="204.79999999999995" y="520" />
              <mxPoint x="204.79999999999995" y="530" />
            </Array>
          </mxGeometry>
        </mxCell>
        <mxCell id="25ei15dYUHbiPBNoR425-31" value="media" style="shape=display;whiteSpace=wrap;html=1;" parent="1" vertex="1">
          <mxGeometry x="155" y="530" width="100" height="40" as="geometry" />
        </mxCell>
        <mxCell id="25ei15dYUHbiPBNoR425-33" value="" style="endArrow=classic;html=1;rounded=0;" parent="1" edge="1">
          <mxGeometry width="50" height="50" relative="1" as="geometry">
            <mxPoint x="204.94000000000005" y="570" as="sourcePoint" />
            <mxPoint x="204.79999999999995" y="590" as="targetPoint" />
            <Array as="points">
              <mxPoint x="204.79999999999995" y="580" />
              <mxPoint x="204.79999999999995" y="590" />
            </Array>
          </mxGeometry>
        </mxCell>
        <mxCell id="25ei15dYUHbiPBNoR425-34" value="&lt;div&gt;&lt;br&gt;&lt;/div&gt;&lt;div&gt;n3&lt;/div&gt;" style="shape=manualInput;whiteSpace=wrap;html=1;" parent="1" vertex="1">
          <mxGeometry x="175" y="390" width="60" height="60" as="geometry" />
        </mxCell>
        <mxCell id="25ei15dYUHbiPBNoR425-35" value="&amp;nbsp; Escreva n3:" style="shape=display;whiteSpace=wrap;html=1;" parent="1" vertex="1">
          <mxGeometry x="155" y="340" width="100" height="40" as="geometry" />
        </mxCell>
        <mxCell id="25ei15dYUHbiPBNoR425-36" value="" style="endArrow=classic;html=1;rounded=0;" parent="1" edge="1">
          <mxGeometry width="50" height="50" relative="1" as="geometry">
            <mxPoint x="204.97000000000003" y="380" as="sourcePoint" />
            <mxPoint x="204.82999999999998" y="400" as="targetPoint" />
            <Array as="points">
              <mxPoint x="204.82999999999998" y="390" />
              <mxPoint x="204.82999999999998" y="400" />
            </Array>
          </mxGeometry>
        </mxCell>
        <mxCell id="25ei15dYUHbiPBNoR425-37" value="" style="endArrow=classic;html=1;rounded=0;" parent="1" edge="1">
          <mxGeometry width="50" height="50" relative="1" as="geometry">
            <mxPoint x="204.94000000000005" y="450" as="sourcePoint" />
            <mxPoint x="204.79999999999995" y="470" as="targetPoint" />
            <Array as="points">
              <mxPoint x="204.79999999999995" y="460" />
              <mxPoint x="204.79999999999995" y="470" />
            </Array>
          </mxGeometry>
        </mxCell>
        <mxCell id="25ei15dYUHbiPBNoR425-38" value="media &amp;gt;= 12" style="rhombus;whiteSpace=wrap;html=1;" parent="1" vertex="1">
          <mxGeometry x="165" y="590" width="80" height="80" as="geometry" />
        </mxCell>
        <mxCell id="25ei15dYUHbiPBNoR425-40" value="" style="endArrow=classic;html=1;rounded=0;" parent="1" edge="1">
          <mxGeometry width="50" height="50" relative="1" as="geometry">
            <mxPoint x="204.81000000000006" y="670" as="sourcePoint" />
            <mxPoint x="205" y="710" as="targetPoint" />
            <Array as="points">
              <mxPoint x="204.66999999999996" y="680" />
              <mxPoint x="204.66999999999996" y="690" />
            </Array>
          </mxGeometry>
        </mxCell>
        <mxCell id="25ei15dYUHbiPBNoR425-44" value="nao" style="edgeLabel;html=1;align=center;verticalAlign=middle;resizable=0;points=[];" parent="25ei15dYUHbiPBNoR425-40" vertex="1" connectable="0">
          <mxGeometry x="-0.2561" relative="1" as="geometry">
            <mxPoint as="offset" />
          </mxGeometry>
        </mxCell>
        <mxCell id="25ei15dYUHbiPBNoR425-42" value="" style="endArrow=classic;html=1;rounded=0;exitX=1;exitY=0.5;exitDx=0;exitDy=0;" parent="1" source="25ei15dYUHbiPBNoR425-38" edge="1">
          <mxGeometry width="50" height="50" relative="1" as="geometry">
            <mxPoint x="260.14000000000004" y="620" as="sourcePoint" />
            <mxPoint x="280" y="630" as="targetPoint" />
            <Array as="points">
              <mxPoint x="270" y="630" />
            </Array>
          </mxGeometry>
        </mxCell>
        <mxCell id="25ei15dYUHbiPBNoR425-43" value="sim" style="edgeLabel;html=1;align=center;verticalAlign=middle;resizable=0;points=[];" parent="25ei15dYUHbiPBNoR425-42" vertex="1" connectable="0">
          <mxGeometry x="-0.2857" y="2" relative="1" as="geometry">
            <mxPoint x="-3" y="2" as="offset" />
          </mxGeometry>
        </mxCell>
        <mxCell id="25ei15dYUHbiPBNoR425-46" value="reprovado" style="shape=display;whiteSpace=wrap;html=1;" parent="1" vertex="1">
          <mxGeometry x="155" y="710" width="100" height="40" as="geometry" />
        </mxCell>
        <mxCell id="25ei15dYUHbiPBNoR425-47" value="aprovado" style="shape=display;whiteSpace=wrap;html=1;" parent="1" vertex="1">
          <mxGeometry x="280" y="610" width="100" height="40" as="geometry" />
        </mxCell>
        <mxCell id="25ei15dYUHbiPBNoR425-48" value="fim" style="ellipse;whiteSpace=wrap;html=1;" parent="1" vertex="1">
          <mxGeometry x="290" y="710" width="80" height="40" as="geometry" />
        </mxCell>
        <mxCell id="25ei15dYUHbiPBNoR425-50" value="" style="endArrow=classic;html=1;rounded=0;exitX=1;exitY=0.5;exitDx=0;exitDy=0;" parent="1" edge="1">
          <mxGeometry width="50" height="50" relative="1" as="geometry">
            <mxPoint x="255" y="729.72" as="sourcePoint" />
            <mxPoint x="290" y="729.72" as="targetPoint" />
            <Array as="points" />
          </mxGeometry>
        </mxCell>
        <mxCell id="25ei15dYUHbiPBNoR425-52" value="" style="endArrow=classic;html=1;rounded=0;exitX=0.499;exitY=1.046;exitDx=0;exitDy=0;exitPerimeter=0;entryX=0.5;entryY=0;entryDx=0;entryDy=0;" parent="1" source="25ei15dYUHbiPBNoR425-47" target="25ei15dYUHbiPBNoR425-48" edge="1">
          <mxGeometry width="50" height="50" relative="1" as="geometry">
            <mxPoint x="280" y="690" as="sourcePoint" />
            <mxPoint x="330" y="640" as="targetPoint" />
            <Array as="points" />
          </mxGeometry>
        </mxCell>
        <mxCell id="25ei15dYUHbiPBNoR425-57" value="Inicio" style="ellipse;whiteSpace=wrap;html=1;" parent="1" vertex="1">
          <mxGeometry x="290" y="10" width="80" height="40" as="geometry" />
        </mxCell>
        <mxCell id="25ei15dYUHbiPBNoR425-58" value="" style="endArrow=classic;html=1;rounded=0;" parent="1" edge="1">
          <mxGeometry width="50" height="50" relative="1" as="geometry">
            <mxPoint x="329.79999999999995" y="50" as="sourcePoint" />
            <mxPoint x="330" y="70" as="targetPoint" />
            <Array as="points">
              <mxPoint x="329.79999999999995" y="70" />
            </Array>
          </mxGeometry>
        </mxCell>
        <mxCell id="25ei15dYUHbiPBNoR425-59" value="&lt;div&gt;&lt;br&gt;&lt;/div&gt;&lt;div&gt;numero&lt;/div&gt;" style="shape=manualInput;whiteSpace=wrap;html=1;" parent="1" vertex="1">
          <mxGeometry x="300" y="120" width="60" height="60" as="geometry" />
        </mxCell>
        <mxCell id="25ei15dYUHbiPBNoR425-60" value="escreva numero" style="shape=display;whiteSpace=wrap;html=1;" parent="1" vertex="1">
          <mxGeometry x="280" y="70" width="100" height="40" as="geometry" />
        </mxCell>
        <mxCell id="25ei15dYUHbiPBNoR425-61" value="" style="endArrow=classic;html=1;rounded=0;" parent="1" edge="1">
          <mxGeometry width="50" height="50" relative="1" as="geometry">
            <mxPoint x="329.94000000000005" y="110" as="sourcePoint" />
            <mxPoint x="329.8" y="130" as="targetPoint" />
            <Array as="points">
              <mxPoint x="329.8" y="120" />
              <mxPoint x="329.8" y="130" />
            </Array>
          </mxGeometry>
        </mxCell>
        <mxCell id="25ei15dYUHbiPBNoR425-65" value="" style="endArrow=classic;html=1;rounded=0;" parent="1" edge="1">
          <mxGeometry width="50" height="50" relative="1" as="geometry">
            <mxPoint x="329.97" y="180" as="sourcePoint" />
            <mxPoint x="329.83" y="200" as="targetPoint" />
            <Array as="points">
              <mxPoint x="329.83" y="190" />
              <mxPoint x="329.83" y="200" />
            </Array>
          </mxGeometry>
        </mxCell>
        <mxCell id="25ei15dYUHbiPBNoR425-69" value="numero &amp;gt; 0" style="rhombus;whiteSpace=wrap;html=1;" parent="1" vertex="1">
          <mxGeometry x="295" y="200" width="70" height="60" as="geometry" />
        </mxCell>
        <mxCell id="25ei15dYUHbiPBNoR425-70" value="" style="endArrow=classic;html=1;rounded=0;exitX=1;exitY=0.5;exitDx=0;exitDy=0;" parent="1" edge="1">
          <mxGeometry width="50" height="50" relative="1" as="geometry">
            <mxPoint x="370" y="230" as="sourcePoint" />
            <mxPoint x="405" y="230" as="targetPoint" />
            <Array as="points">
              <mxPoint x="395" y="230" />
            </Array>
          </mxGeometry>
        </mxCell>
        <mxCell id="25ei15dYUHbiPBNoR425-71" value="sim" style="edgeLabel;html=1;align=center;verticalAlign=middle;resizable=0;points=[];" parent="25ei15dYUHbiPBNoR425-70" vertex="1" connectable="0">
          <mxGeometry x="-0.2857" y="2" relative="1" as="geometry">
            <mxPoint x="-3" y="2" as="offset" />
          </mxGeometry>
        </mxCell>
        <mxCell id="25ei15dYUHbiPBNoR425-72" value="" style="endArrow=classic;html=1;rounded=0;" parent="1" edge="1">
          <mxGeometry width="50" height="50" relative="1" as="geometry">
            <mxPoint x="329.9500000000001" y="260" as="sourcePoint" />
            <mxPoint x="330.13999999999993" y="300" as="targetPoint" />
            <Array as="points">
              <mxPoint x="329.81" y="270" />
              <mxPoint x="329.81" y="280" />
            </Array>
          </mxGeometry>
        </mxCell>
        <mxCell id="25ei15dYUHbiPBNoR425-73" value="nao" style="edgeLabel;html=1;align=center;verticalAlign=middle;resizable=0;points=[];" parent="25ei15dYUHbiPBNoR425-72" vertex="1" connectable="0">
          <mxGeometry x="-0.2561" relative="1" as="geometry">
            <mxPoint as="offset" />
          </mxGeometry>
        </mxCell>
        <mxCell id="25ei15dYUHbiPBNoR425-74" value="o numero Ã© positivo" style="shape=display;whiteSpace=wrap;html=1;" parent="1" vertex="1">
          <mxGeometry x="410" y="210" width="100" height="40" as="geometry" />
        </mxCell>
        <mxCell id="25ei15dYUHbiPBNoR425-75" value="numero Ã© negativo" style="shape=display;whiteSpace=wrap;html=1;" parent="1" vertex="1">
          <mxGeometry x="280" y="300" width="100" height="40" as="geometry" />
        </mxCell>
        <mxCell id="25ei15dYUHbiPBNoR425-76" value="fim" style="ellipse;whiteSpace=wrap;html=1;" parent="1" vertex="1">
          <mxGeometry x="430" y="300" width="80" height="40" as="geometry" />
        </mxCell>
        <mxCell id="25ei15dYUHbiPBNoR425-77" value="" style="endArrow=classic;html=1;rounded=0;exitX=0.499;exitY=1.046;exitDx=0;exitDy=0;exitPerimeter=0;entryX=0.5;entryY=0;entryDx=0;entryDy=0;" parent="1" target="25ei15dYUHbiPBNoR425-76" edge="1">
          <mxGeometry width="50" height="50" relative="1" as="geometry">
            <mxPoint x="469.80999999999995" y="250" as="sourcePoint" />
            <mxPoint x="469.80999999999995" y="290" as="targetPoint" />
            <Array as="points">
              <mxPoint x="469.80999999999995" y="270" />
            </Array>
          </mxGeometry>
        </mxCell>
        <mxCell id="25ei15dYUHbiPBNoR425-78" value="" style="endArrow=classic;html=1;rounded=0;exitX=1;exitY=0.5;exitDx=0;exitDy=0;entryX=0;entryY=0.5;entryDx=0;entryDy=0;" parent="1" target="25ei15dYUHbiPBNoR425-76" edge="1">
          <mxGeometry width="50" height="50" relative="1" as="geometry">
            <mxPoint x="380" y="319.62" as="sourcePoint" />
            <mxPoint x="415" y="319.62" as="targetPoint" />
            <Array as="points" />
          </mxGeometry>
        </mxCell>
        <mxCell id="25ei15dYUHbiPBNoR425-79" value="" style="endArrow=none;html=1;rounded=0;" parent="1" edge="1">
          <mxGeometry width="50" height="50" relative="1" as="geometry">
            <mxPoint x="140" y="510" as="sourcePoint" />
            <mxPoint x="140" as="targetPoint" />
          </mxGeometry>
        </mxCell>
        <mxCell id="25ei15dYUHbiPBNoR425-80" value="" style="endArrow=none;html=1;rounded=0;" parent="1" edge="1">
          <mxGeometry width="50" height="50" relative="1" as="geometry">
            <mxPoint y="510" as="sourcePoint" />
            <mxPoint x="140" y="510" as="targetPoint" />
          </mxGeometry>
        </mxCell>
        <mxCell id="25ei15dYUHbiPBNoR425-81" value="" style="endArrow=none;html=1;rounded=0;" parent="1" edge="1">
          <mxGeometry width="50" height="50" relative="1" as="geometry">
            <mxPoint x="140" y="760" as="sourcePoint" />
            <mxPoint x="140" y="510" as="targetPoint" />
          </mxGeometry>
        </mxCell>
        <mxCell id="25ei15dYUHbiPBNoR425-82" value="" style="endArrow=none;html=1;rounded=0;" parent="1" edge="1">
          <mxGeometry width="50" height="50" relative="1" as="geometry">
            <mxPoint x="390" y="760" as="sourcePoint" />
            <mxPoint x="140" y="760" as="targetPoint" />
          </mxGeometry>
        </mxCell>
        <mxCell id="25ei15dYUHbiPBNoR425-83" value="" style="endArrow=none;html=1;rounded=0;" parent="1" edge="1">
          <mxGeometry width="50" height="50" relative="1" as="geometry">
            <mxPoint x="390" y="760" as="sourcePoint" />
            <mxPoint x="390" y="590" as="targetPoint" />
          </mxGeometry>
        </mxCell>
        <mxCell id="25ei15dYUHbiPBNoR425-84" value="" style="endArrow=none;html=1;rounded=0;" parent="1" edge="1">
          <mxGeometry width="50" height="50" relative="1" as="geometry">
            <mxPoint x="270" y="590" as="sourcePoint" />
            <mxPoint x="390" y="590" as="targetPoint" />
          </mxGeometry>
        </mxCell>
        <mxCell id="25ei15dYUHbiPBNoR425-85" value="" style="endArrow=none;html=1;rounded=0;" parent="1" edge="1">
          <mxGeometry width="50" height="50" relative="1" as="geometry">
            <mxPoint x="270" y="590" as="sourcePoint" />
            <mxPoint x="270" as="targetPoint" />
          </mxGeometry>
        </mxCell>
        <mxCell id="25ei15dYUHbiPBNoR425-86" value="" style="endArrow=none;html=1;rounded=0;" parent="1" edge="1">
          <mxGeometry width="50" height="50" relative="1" as="geometry">
            <mxPoint x="270" y="360" as="sourcePoint" />
            <mxPoint x="530" y="360" as="targetPoint" />
          </mxGeometry>
        </mxCell>
        <mxCell id="25ei15dYUHbiPBNoR425-87" value="" style="endArrow=none;html=1;rounded=0;" parent="1" edge="1">
          <mxGeometry width="50" height="50" relative="1" as="geometry">
            <mxPoint x="530" y="360" as="sourcePoint" />
            <mxPoint x="530" y="190" as="targetPoint" />
          </mxGeometry>
        </mxCell>
        <mxCell id="25ei15dYUHbiPBNoR425-88" value="" style="endArrow=none;html=1;rounded=0;" parent="1" edge="1">
          <mxGeometry width="50" height="50" relative="1" as="geometry">
            <mxPoint x="530" y="190" as="sourcePoint" />
            <mxPoint x="390" y="190" as="targetPoint" />
          </mxGeometry>
        </mxCell>
        <mxCell id="25ei15dYUHbiPBNoR425-89" value="" style="endArrow=none;html=1;rounded=0;" parent="1" edge="1">
          <mxGeometry width="50" height="50" relative="1" as="geometry">
            <mxPoint x="389" y="190" as="sourcePoint" />
            <mxPoint x="390" as="targetPoint" />
          </mxGeometry>
        </mxCell>
        <mxCell id="25ei15dYUHbiPBNoR425-106" value="Inicio" style="ellipse;whiteSpace=wrap;html=1;" parent="1" vertex="1">
          <mxGeometry x="550" y="5" width="80" height="40" as="geometry" />
        </mxCell>
        <mxCell id="25ei15dYUHbiPBNoR425-107" value="escreva numero" style="shape=display;whiteSpace=wrap;html=1;" parent="1" vertex="1">
          <mxGeometry x="540" y="75" width="100" height="40" as="geometry" />
        </mxCell>
        <mxCell id="25ei15dYUHbiPBNoR425-116" style="edgeStyle=orthogonalEdgeStyle;rounded=0;orthogonalLoop=1;jettySize=auto;html=1;exitX=0.5;exitY=1;exitDx=0;exitDy=0;entryX=0.5;entryY=0;entryDx=0;entryDy=0;" parent="1" source="25ei15dYUHbiPBNoR425-108" target="25ei15dYUHbiPBNoR425-109" edge="1">
          <mxGeometry relative="1" as="geometry" />
        </mxCell>
        <mxCell id="25ei15dYUHbiPBNoR425-108" value="&lt;div&gt;&lt;br&gt;&lt;/div&gt;&lt;div&gt;numero&lt;/div&gt;" style="shape=manualInput;whiteSpace=wrap;html=1;" parent="1" vertex="1">
          <mxGeometry x="560" y="135" width="60" height="60" as="geometry" />
        </mxCell>
        <mxCell id="25ei15dYUHbiPBNoR425-117" style="edgeStyle=orthogonalEdgeStyle;rounded=0;orthogonalLoop=1;jettySize=auto;html=1;exitX=0.5;exitY=1;exitDx=0;exitDy=0;" parent="1" source="25ei15dYUHbiPBNoR425-109" target="25ei15dYUHbiPBNoR425-110" edge="1">
          <mxGeometry relative="1" as="geometry" />
        </mxCell>
        <mxCell id="25ei15dYUHbiPBNoR425-109" value="&lt;span style=&quot;font-size: 8px;&quot;&gt;calcular o dobro do numero&lt;/span&gt;" style="rounded=0;whiteSpace=wrap;html=1;" parent="1" vertex="1">
          <mxGeometry x="545" y="225" width="90" height="40" as="geometry" />
        </mxCell>
        <mxCell id="25ei15dYUHbiPBNoR425-110" value="$dobro$" style="shape=display;whiteSpace=wrap;html=1;" parent="1" vertex="1">
          <mxGeometry x="540" y="285" width="100" height="40" as="geometry" />
        </mxCell>
        <mxCell id="25ei15dYUHbiPBNoR425-120" style="edgeStyle=orthogonalEdgeStyle;rounded=0;orthogonalLoop=1;jettySize=auto;html=1;exitX=0;exitY=0;exitDx=52.5;exitDy=40;exitPerimeter=0;entryX=0.5;entryY=0;entryDx=0;entryDy=0;" parent="1" source="25ei15dYUHbiPBNoR425-111" target="25ei15dYUHbiPBNoR425-112" edge="1">
          <mxGeometry relative="1" as="geometry" />
        </mxCell>
        <mxCell id="25ei15dYUHbiPBNoR425-111" value="$metade$" style="shape=display;whiteSpace=wrap;html=1;" parent="1" vertex="1">
          <mxGeometry x="540" y="430" width="100" height="40" as="geometry" />
        </mxCell>
        <mxCell id="25ei15dYUHbiPBNoR425-112" value="fim" style="ellipse;whiteSpace=wrap;html=1;" parent="1" vertex="1">
          <mxGeometry x="555" y="500" width="80" height="40" as="geometry" />
        </mxCell>
        <mxCell id="25ei15dYUHbiPBNoR425-114" style="edgeStyle=orthogonalEdgeStyle;rounded=0;orthogonalLoop=1;jettySize=auto;html=1;exitX=0.5;exitY=1;exitDx=0;exitDy=0;entryX=0;entryY=0;entryDx=52.5;entryDy=0;entryPerimeter=0;" parent="1" source="25ei15dYUHbiPBNoR425-106" target="25ei15dYUHbiPBNoR425-107" edge="1">
          <mxGeometry relative="1" as="geometry" />
        </mxCell>
        <mxCell id="25ei15dYUHbiPBNoR425-115" style="edgeStyle=orthogonalEdgeStyle;rounded=0;orthogonalLoop=1;jettySize=auto;html=1;exitX=0;exitY=0;exitDx=52.5;exitDy=40;exitPerimeter=0;entryX=0.569;entryY=0.231;entryDx=0;entryDy=0;entryPerimeter=0;" parent="1" source="25ei15dYUHbiPBNoR425-107" target="25ei15dYUHbiPBNoR425-108" edge="1">
          <mxGeometry relative="1" as="geometry" />
        </mxCell>
        <mxCell id="25ei15dYUHbiPBNoR425-119" style="edgeStyle=orthogonalEdgeStyle;rounded=0;orthogonalLoop=1;jettySize=auto;html=1;exitX=0;exitY=0;exitDx=52.5;exitDy=40;exitPerimeter=0;entryX=0;entryY=0;entryDx=52.5;entryDy=0;entryPerimeter=0;" parent="1" source="igY6-6eHagqcgjSzm-iY-1" target="25ei15dYUHbiPBNoR425-111" edge="1">
          <mxGeometry relative="1" as="geometry" />
        </mxCell>
        <mxCell id="25ei15dYUHbiPBNoR425-122" value="" style="endArrow=none;html=1;rounded=0;" parent="1" edge="1">
          <mxGeometry width="50" height="50" relative="1" as="geometry">
            <mxPoint x="530" y="550" as="sourcePoint" />
            <mxPoint x="530" y="360" as="targetPoint" />
          </mxGeometry>
        </mxCell>
        <mxCell id="25ei15dYUHbiPBNoR425-124" value="" style="endArrow=none;html=1;rounded=0;" parent="1" edge="1">
          <mxGeometry width="50" height="50" relative="1" as="geometry">
            <mxPoint x="650" y="550" as="sourcePoint" />
            <mxPoint x="650" as="targetPoint" />
          </mxGeometry>
        </mxCell>
        <mxCell id="25ei15dYUHbiPBNoR425-125" value="" style="endArrow=none;html=1;rounded=0;" parent="1" edge="1">
          <mxGeometry width="50" height="50" relative="1" as="geometry">
            <mxPoint x="530" y="190" as="sourcePoint" />
            <mxPoint x="530" as="targetPoint" />
          </mxGeometry>
        </mxCell>
        <mxCell id="igY6-6eHagqcgjSzm-iY-2" value="" style="edgeStyle=orthogonalEdgeStyle;rounded=0;orthogonalLoop=1;jettySize=auto;html=1;exitX=0;exitY=0;exitDx=52.5;exitDy=40;exitPerimeter=0;entryX=0;entryY=0;entryDx=52.5;entryDy=0;entryPerimeter=0;" edge="1" parent="1" source="25ei15dYUHbiPBNoR425-110" target="igY6-6eHagqcgjSzm-iY-1">
          <mxGeometry relative="1" as="geometry">
            <mxPoint x="593" y="325" as="sourcePoint" />
            <mxPoint x="593" y="430" as="targetPoint" />
          </mxGeometry>
        </mxCell>
        <mxCell id="igY6-6eHagqcgjSzm-iY-1" value="&lt;span style=&quot;font-size: 8px;&quot;&gt;calcular a metade do numero&lt;/span&gt;" style="rounded=0;whiteSpace=wrap;html=1;" vertex="1" parent="1">
          <mxGeometry x="545" y="360" width="90" height="40" as="geometry" />
        </mxCell>
        <mxCell id="igY6-6eHagqcgjSzm-iY-3" value="" style="endArrow=none;html=1;rounded=0;" edge="1" parent="1">
          <mxGeometry width="50" height="50" relative="1" as="geometry">
            <mxPoint x="530" y="550" as="sourcePoint" />
            <mxPoint x="650" y="550" as="targetPoint" />
          </mxGeometry>
        </mxCell>
      </root>
    </mxGraphModel>
  </diagram>
</mxfile>
